<svg width="30" height="31" viewBox="0 0 30 31" fill="none" xmlns="http://www.w3.org/2000/svg">
<path d="M24.5901 28.4164H22.1311V25.8331C22.1311 23.693 20.4798 21.9581 18.4426 21.9581H11.0656C9.02855 21.9581 7.37714 23.693 7.37714 25.8331V28.4164H4.91815V25.8331C4.91815 22.2663 7.67048 19.3748 11.0656 19.3748H18.4426C21.8378 19.3748 24.5901 22.2663 24.5901 25.8331V28.4164ZM14.7541 16.7915C10.6799 16.7915 7.37714 13.3217 7.37714 9.04148C7.37714 4.76129 10.6799 1.2915 14.7541 1.2915C18.8283 1.2915 22.1311 4.76129 22.1311 9.04148C22.1311 13.3217 18.8283 16.7915 14.7541 16.7915ZM14.7541 14.2081C17.4702 14.2081 19.6721 11.895 19.6721 9.04148C19.6721 6.18802 17.4702 3.87483 14.7541 3.87483C12.038 3.87483 9.83614 6.18802 9.83614 9.04148C9.83614 11.895 12.038 14.2081 14.7541 14.2081Z" fill="#1C1C1C"/>
</svg>
