<svg width="30" height="31" viewBox="0 0 30 31" fill="none" xmlns="http://www.w3.org/2000/svg">
<path d="M7.35349 10.3335V9.04184C7.35349 4.76161 10.6457 1.29179 14.707 1.29179C18.7681 1.29179 22.0604 4.76161 22.0604 9.04184V10.3335H24.5116C25.1885 10.3335 25.7371 10.9118 25.7371 11.6252V27.1253C25.7371 27.8387 25.1885 28.417 24.5116 28.417H4.90233C4.22547 28.417 3.67675 27.8387 3.67675 27.1253V11.6252C3.67675 10.9118 4.22547 10.3335 4.90233 10.3335H7.35349ZM23.286 12.9169H6.12791V25.8336H23.286V12.9169ZM13.4814 20.3213C12.7487 19.8746 12.2558 19.0398 12.2558 18.0836C12.2558 16.6568 13.3532 15.5002 14.707 15.5002C16.0607 15.5002 17.1581 16.6568 17.1581 18.0836C17.1581 19.0398 16.6652 19.8746 15.9325 20.3213V23.2503H13.4814V20.3213ZM9.80464 10.3335H19.6093V9.04184C19.6093 6.18835 17.4144 3.87514 14.707 3.87514C11.9995 3.87514 9.80464 6.18835 9.80464 9.04184V10.3335Z" fill="#1C1C1C"/>
</svg>
